<?xml version="1.0" encoding="UTF-8"?>
<!DOCTYPE svg PUBLIC "-//W3C//DTD SVG 1.0//EN" "http://www.w3.org/TR/2001/REC-SVG-20010904/DTD/svg10.dtd">
<!-- Creator: CorelDRAW X7 -->
<svg xmlns="http://www.w3.org/2000/svg" xml:space="preserve" width="1800px" height="900px" version="1.0" style="shape-rendering:geometricPrecision; text-rendering:geometricPrecision; image-rendering:optimizeQuality; fill-rule:evenodd; clip-rule:evenodd"
viewBox="0 0 1800 900"
 xmlns:xlink="http://www.w3.org/1999/xlink">
 <defs>
  <style type="text/css">
   <![CDATA[
    .str0 {stroke:black;stroke-width:0.787402}
    .fil0 {fill:black}
    .fil2 {fill:#33CC33}
    .fil7 {fill:#9900CC}
    .fil6 {fill:#99FFFF}
    .fil4 {fill:red}
    .fil5 {fill:#FF6600}
    .fil3 {fill:#FF99CC}
    .fil1 {fill:yellow}
    .fil8 {fill:black;fill-rule:nonzero}
   ]]>
  </style>
 </defs>
 <g id="Vrstva_x0020_1">
  <metadata id="CorelCorpID_0Corel-Layer"/>
  <rect class="fil0 str0" y="90" width="24" height="571.303"/>
  <rect class="fil0 str0" x="1776" y="90" width="24" height="570.5"/>
  <rect class="fil0 str0" x="1317" y="420" width="24" height="240.5"/>
  <rect class="fil0 str0" x="460" y="420" width="24" height="239.226"/>
  <polygon class="fil0 str0" points="0,112 0,88 600,88 600,112 "/>
  <polygon class="fil0 str0" points="1200,112 1200,88 1800,88 1800,112 "/>
  <polygon class="fil0 str0" points="576,24 576,0 1224,0 1224,24 "/>
  <rect class="fil0 str0" x="1200" width="24" height="112"/>
  <rect class="fil0 str0" x="575" width="24" height="112"/>
  <rect class="fil0 str0" x="588" y="89" width="12" height="210"/>
  <rect class="fil0 str0" x="1200" y="87" width="12" height="212.196"/>
  <rect class="fil0 str0" x="1328" y="87" width="12" height="212.112"/>
  <rect class="fil0 str0" x="330" y="89" width="12" height="210.776"/>
  <rect class="fil0 str0" x="588" y="420" width="12" height="240"/>
  <rect class="fil0 str0" x="1199" y="419" width="12" height="239.794"/>
  <rect class="fil0 str0" x="330" y="420" width="24" height="241.356"/>
  <rect class="fil0 str0" x="1446" y="419" width="24" height="241"/>
  <polygon class="fil0 str0" points="1447,661 1447,637 1800,637 1800,661 "/>
  <rect class="fil0 str0" x="1669" y="498" width="12" height="162.841"/>
  <polygon class="fil0 str0" points="5,217 5,205 222,205 222,217 "/>
  <polygon class="fil0 str0" points="1578,430 1578,418 1800,418 1800,430 "/>
  <rect class="fil0 str0" x="825" y="421" width="150" height="120"/>
  <polygon class="fil0 str0" points="291,498 354,498 354,510 291,510 "/>
  <polygon class="fil0 str0" points="1,510 1,498 261,498 261,510 "/>
  <polygon class="fil0 str0" points="1591,471 1591,510 1579,510 1579,471 "/>
  <polygon class="fil0 str0" points="1591,371 1591,441 1579,441 1579,371 "/>
  <polygon class="fil0 str0" points="1579,89 1591,89 1591,341 1579,341 "/>
  <polygon class="fil0 str0" points="1747,498 1798,498 1798,510 1747,510 "/>
  <polygon class="fil0 str0" points="1541,498 1717,498 1717,510 1541,510 "/>
  <polygon class="fil0 str0" points="1447,510 1447,498 1511,498 1511,510 "/>
  <polygon class="fil0 str0" points="1280,420 1471,420 1471,444 1280,444 "/>
  <polygon class="fil0 str0" points="1199,444 1199,420 1250,420 1250,444 "/>
  <polygon class="fil0 str0" points="222,373 222,510 210,510 210,373 "/>
  <polygon class="fil0 str0" points="222,190 222,342 210,342 210,190 "/>
  <polygon class="fil0 str0" points="210,89 222,89 222,160 210,160 "/>
  <polygon class="fil0 str0" points="546,419 600,419 600,443 546,443 "/>
  <polygon class="fil0 str0" points="330,443 330,419 516,419 516,443 "/>
  <polygon class="fil0 str0" points="1541,288 1591,288 1591,300 1541,300 "/>
  <polygon class="fil0 str0" points="1280,288 1511,288 1511,300 1280,300 "/>
  <polygon class="fil0 str0" points="1118,288 1250,288 1250,300 1118,300 "/>
  <polygon class="fil0 str0" points="740,288 1060,288 1060,300 740,300 "/>
  <polygon class="fil0 str0" points="550,288 682,288 682,300 550,300 "/>
  <polygon class="fil0 str0" points="291,288 520,288 520,300 291,300 "/>
  <polygon class="fil0 str0" points="210,300 210,288 261,288 261,300 "/>
  <rect class="fil1" x="600" y="25" width="600" height="262"/>
  <rect class="fil2" x="337" y="109" width="251" height="178"/>
  <rect class="fil3" x="24" y="215" width="186" height="282"/>
  <rect class="fil4" x="24" y="509" width="306" height="128"/>
  <rect class="fil5" x="1592" y="113" width="184" height="303"/>
  <rect class="fil6" x="1340" y="112" width="239" height="175"/>
  <rect class="fil7" x="1471" y="508" width="198" height="128"/>
  <polygon class="fil0" points="267,637 355,637 355,661 0,661 0,637 "/>
  <polygon class="fil0 str0" points="460,660 460,636 918,636 1341,636 1341,660 918,660 "/>
 </g>
</svg>
